<mxfile host="app.diagrams.net" agent="Mozilla/5.0 (Windows NT 10.0; Win64; x64) AppleWebKit/537.36 (KHTML, like Gecko) Chrome/139.0.0.0 Safari/537.36" version="28.1.2">
  <diagram name="Stránka-1" id="wixR15uSysx3MrYuyVvD">
    <mxGraphModel grid="1" page="1" gridSize="10" guides="1" tooltips="1" connect="1" arrows="1" fold="1" pageScale="1" pageWidth="827" pageHeight="1169" math="0" shadow="0">
      <root>
        <mxCell id="0" />
        <mxCell id="1" parent="0" />
        <mxCell id="mPL2Kx1eOWZCQkywm1ft-3" value="" style="whiteSpace=wrap;html=1;" vertex="1" parent="1">
          <mxGeometry x="120" y="10" width="570" height="630" as="geometry" />
        </mxCell>
        <mxCell id="mPL2Kx1eOWZCQkywm1ft-61" style="edgeStyle=orthogonalEdgeStyle;rounded=0;orthogonalLoop=1;jettySize=auto;html=1;entryX=0;entryY=0.5;entryDx=0;entryDy=0;" edge="1" parent="1" source="mPL2Kx1eOWZCQkywm1ft-1" target="mPL2Kx1eOWZCQkywm1ft-60">
          <mxGeometry relative="1" as="geometry" />
        </mxCell>
        <mxCell id="mPL2Kx1eOWZCQkywm1ft-65" style="edgeStyle=orthogonalEdgeStyle;rounded=0;orthogonalLoop=1;jettySize=auto;html=1;entryX=0;entryY=0.5;entryDx=0;entryDy=0;" edge="1" parent="1" source="mPL2Kx1eOWZCQkywm1ft-1" target="mPL2Kx1eOWZCQkywm1ft-64">
          <mxGeometry relative="1" as="geometry" />
        </mxCell>
        <mxCell id="mPL2Kx1eOWZCQkywm1ft-72" style="edgeStyle=orthogonalEdgeStyle;rounded=0;orthogonalLoop=1;jettySize=auto;html=1;entryX=0;entryY=0.5;entryDx=0;entryDy=0;" edge="1" parent="1" source="mPL2Kx1eOWZCQkywm1ft-1" target="mPL2Kx1eOWZCQkywm1ft-67">
          <mxGeometry relative="1" as="geometry" />
        </mxCell>
        <mxCell id="mPL2Kx1eOWZCQkywm1ft-1" value="Zákazník" style="shape=umlActor;verticalLabelPosition=bottom;verticalAlign=top;html=1;outlineConnect=0;" vertex="1" parent="1">
          <mxGeometry x="20" y="320" width="30" height="60" as="geometry" />
        </mxCell>
        <mxCell id="mPL2Kx1eOWZCQkywm1ft-10" style="rounded=0;orthogonalLoop=1;jettySize=auto;html=1;entryX=0;entryY=0.5;entryDx=0;entryDy=0;exitX=1;exitY=0.5;exitDx=0;exitDy=0;edgeStyle=orthogonalEdgeStyle;dashed=1;" edge="1" parent="1">
          <mxGeometry relative="1" as="geometry">
            <mxPoint x="260" y="169.57999999999998" as="sourcePoint" />
            <mxPoint x="370" y="169.57999999999998" as="targetPoint" />
          </mxGeometry>
        </mxCell>
        <mxCell id="mPL2Kx1eOWZCQkywm1ft-11" value="&amp;lt;&amp;lt;extend&amp;gt;&amp;gt;" style="edgeLabel;html=1;align=center;verticalAlign=middle;resizable=0;points=[];" connectable="0" vertex="1" parent="mPL2Kx1eOWZCQkywm1ft-10">
          <mxGeometry x="-0.093" y="-3" relative="1" as="geometry">
            <mxPoint y="-3" as="offset" />
          </mxGeometry>
        </mxCell>
        <mxCell id="mPL2Kx1eOWZCQkywm1ft-5" value="Prohlížení pokojů" style="rounded=1;whiteSpace=wrap;html=1;fillColor=#dae8fc;strokeColor=#6c8ebf;" vertex="1" parent="1">
          <mxGeometry x="150" y="150" width="110" height="40" as="geometry" />
        </mxCell>
        <mxCell id="mPL2Kx1eOWZCQkywm1ft-40" style="edgeStyle=orthogonalEdgeStyle;rounded=0;orthogonalLoop=1;jettySize=auto;html=1;entryX=0;entryY=0.5;entryDx=0;entryDy=0;dashed=1;" edge="1" parent="1" source="mPL2Kx1eOWZCQkywm1ft-6" target="mPL2Kx1eOWZCQkywm1ft-21">
          <mxGeometry relative="1" as="geometry" />
        </mxCell>
        <mxCell id="mPL2Kx1eOWZCQkywm1ft-42" value="&amp;lt;&amp;lt;include&amp;gt;&amp;gt;" style="edgeLabel;html=1;align=center;verticalAlign=middle;resizable=0;points=[];" connectable="0" vertex="1" parent="mPL2Kx1eOWZCQkywm1ft-40">
          <mxGeometry x="0.0327" relative="1" as="geometry">
            <mxPoint as="offset" />
          </mxGeometry>
        </mxCell>
        <mxCell id="mPL2Kx1eOWZCQkywm1ft-6" value="Správa profilu" style="rounded=1;whiteSpace=wrap;html=1;fillColor=#dae8fc;strokeColor=#6c8ebf;" vertex="1" parent="1">
          <mxGeometry x="150" y="330" width="110" height="40" as="geometry" />
        </mxCell>
        <mxCell id="mPL2Kx1eOWZCQkywm1ft-41" style="edgeStyle=orthogonalEdgeStyle;rounded=0;orthogonalLoop=1;jettySize=auto;html=1;entryX=0.5;entryY=1;entryDx=0;entryDy=0;dashed=1;" edge="1" parent="1" source="mPL2Kx1eOWZCQkywm1ft-7" target="mPL2Kx1eOWZCQkywm1ft-21">
          <mxGeometry relative="1" as="geometry" />
        </mxCell>
        <mxCell id="mPL2Kx1eOWZCQkywm1ft-7" value="Hodnocení pobytu" style="rounded=1;whiteSpace=wrap;html=1;fillColor=#dae8fc;strokeColor=#6c8ebf;" vertex="1" parent="1">
          <mxGeometry x="150" y="400" width="110" height="40" as="geometry" />
        </mxCell>
        <mxCell id="mPL2Kx1eOWZCQkywm1ft-8" value="Hotelák" style="text;strokeColor=none;align=center;fillColor=none;html=1;verticalAlign=middle;whiteSpace=wrap;rounded=0;" vertex="1" parent="1">
          <mxGeometry x="120" y="10" width="570" height="40" as="geometry" />
        </mxCell>
        <mxCell id="mPL2Kx1eOWZCQkywm1ft-9" value="Filtrace" style="rounded=1;whiteSpace=wrap;html=1;fillColor=#fff2cc;strokeColor=#d6b656;" vertex="1" parent="1">
          <mxGeometry x="370" y="150" width="110" height="40" as="geometry" />
        </mxCell>
        <mxCell id="mPL2Kx1eOWZCQkywm1ft-21" value="Přihlášení" style="rounded=1;whiteSpace=wrap;html=1;fillColor=#fff2cc;strokeColor=#d6b656;" vertex="1" parent="1">
          <mxGeometry x="370" y="330" width="110" height="40" as="geometry" />
        </mxCell>
        <mxCell id="mPL2Kx1eOWZCQkywm1ft-30" style="rounded=0;orthogonalLoop=1;jettySize=auto;html=1;entryX=0;entryY=0.5;entryDx=0;entryDy=0;edgeStyle=orthogonalEdgeStyle;elbow=vertical;" edge="1" parent="1" target="mPL2Kx1eOWZCQkywm1ft-5">
          <mxGeometry relative="1" as="geometry">
            <mxPoint x="70" y="350" as="sourcePoint" />
            <Array as="points">
              <mxPoint x="100" y="350" />
              <mxPoint x="100" y="170" />
            </Array>
          </mxGeometry>
        </mxCell>
        <mxCell id="mPL2Kx1eOWZCQkywm1ft-39" style="edgeStyle=orthogonalEdgeStyle;rounded=0;orthogonalLoop=1;jettySize=auto;html=1;entryX=0.5;entryY=0;entryDx=0;entryDy=0;dashed=1;" edge="1" parent="1" source="mPL2Kx1eOWZCQkywm1ft-31" target="mPL2Kx1eOWZCQkywm1ft-21">
          <mxGeometry relative="1" as="geometry" />
        </mxCell>
        <mxCell id="mPL2Kx1eOWZCQkywm1ft-31" value="Rezervace" style="rounded=1;whiteSpace=wrap;html=1;fillColor=#dae8fc;strokeColor=#6c8ebf;" vertex="1" parent="1">
          <mxGeometry x="150" y="250" width="110" height="40" as="geometry" />
        </mxCell>
        <mxCell id="mPL2Kx1eOWZCQkywm1ft-38" style="edgeStyle=orthogonalEdgeStyle;rounded=0;orthogonalLoop=1;jettySize=auto;html=1;entryX=0;entryY=0.5;entryDx=0;entryDy=0;" edge="1" parent="1" source="mPL2Kx1eOWZCQkywm1ft-1" target="mPL2Kx1eOWZCQkywm1ft-7">
          <mxGeometry relative="1" as="geometry" />
        </mxCell>
        <mxCell id="mPL2Kx1eOWZCQkywm1ft-37" style="edgeStyle=orthogonalEdgeStyle;rounded=0;orthogonalLoop=1;jettySize=auto;html=1;entryX=0;entryY=0.5;entryDx=0;entryDy=0;" edge="1" parent="1" source="mPL2Kx1eOWZCQkywm1ft-1" target="mPL2Kx1eOWZCQkywm1ft-6">
          <mxGeometry relative="1" as="geometry" />
        </mxCell>
        <mxCell id="mPL2Kx1eOWZCQkywm1ft-36" style="edgeStyle=orthogonalEdgeStyle;rounded=0;orthogonalLoop=1;jettySize=auto;html=1;entryX=0;entryY=0.5;entryDx=0;entryDy=0;" edge="1" parent="1" source="mPL2Kx1eOWZCQkywm1ft-1" target="mPL2Kx1eOWZCQkywm1ft-31">
          <mxGeometry relative="1" as="geometry" />
        </mxCell>
        <mxCell id="mPL2Kx1eOWZCQkywm1ft-43" value="&amp;lt;&amp;lt;include&amp;gt;&amp;gt;" style="edgeLabel;html=1;align=center;verticalAlign=middle;resizable=0;points=[];" connectable="0" vertex="1" parent="1">
          <mxGeometry x="330" y="270" as="geometry" />
        </mxCell>
        <mxCell id="mPL2Kx1eOWZCQkywm1ft-44" value="&amp;lt;&amp;lt;include&amp;gt;&amp;gt;" style="edgeLabel;html=1;align=center;verticalAlign=middle;resizable=0;points=[];" connectable="0" vertex="1" parent="1">
          <mxGeometry x="320" y="420" as="geometry" />
        </mxCell>
        <mxCell id="mPL2Kx1eOWZCQkywm1ft-60" value="Registrace" style="rounded=1;whiteSpace=wrap;html=1;fillColor=#dae8fc;strokeColor=#6c8ebf;" vertex="1" parent="1">
          <mxGeometry x="150" y="460" width="110" height="40" as="geometry" />
        </mxCell>
        <mxCell id="mPL2Kx1eOWZCQkywm1ft-64" value="Historie pobytů" style="rounded=1;whiteSpace=wrap;html=1;fillColor=#dae8fc;strokeColor=#6c8ebf;" vertex="1" parent="1">
          <mxGeometry x="150" y="520" width="110" height="40" as="geometry" />
        </mxCell>
        <mxCell id="mPL2Kx1eOWZCQkywm1ft-67" value="Správa rezervace uživatele" style="rounded=1;whiteSpace=wrap;html=1;fillColor=#dae8fc;strokeColor=#6c8ebf;" vertex="1" parent="1">
          <mxGeometry x="150" y="580" width="160" height="40" as="geometry" />
        </mxCell>
        <mxCell id="mPL2Kx1eOWZCQkywm1ft-78" style="edgeStyle=orthogonalEdgeStyle;rounded=0;orthogonalLoop=1;jettySize=auto;html=1;entryX=1;entryY=0.5;entryDx=0;entryDy=0;" edge="1" parent="1" source="mPL2Kx1eOWZCQkywm1ft-73" target="mPL2Kx1eOWZCQkywm1ft-75">
          <mxGeometry relative="1" as="geometry" />
        </mxCell>
        <mxCell id="mPL2Kx1eOWZCQkywm1ft-79" style="edgeStyle=orthogonalEdgeStyle;rounded=0;orthogonalLoop=1;jettySize=auto;html=1;entryX=1;entryY=0.5;entryDx=0;entryDy=0;" edge="1" parent="1" source="mPL2Kx1eOWZCQkywm1ft-73" target="mPL2Kx1eOWZCQkywm1ft-74">
          <mxGeometry relative="1" as="geometry">
            <Array as="points">
              <mxPoint x="710" y="350" />
              <mxPoint x="710" y="270" />
            </Array>
          </mxGeometry>
        </mxCell>
        <mxCell id="mPL2Kx1eOWZCQkywm1ft-80" style="edgeStyle=orthogonalEdgeStyle;rounded=0;orthogonalLoop=1;jettySize=auto;html=1;entryX=1;entryY=0.5;entryDx=0;entryDy=0;" edge="1" parent="1" source="mPL2Kx1eOWZCQkywm1ft-73" target="mPL2Kx1eOWZCQkywm1ft-76">
          <mxGeometry relative="1" as="geometry">
            <Array as="points">
              <mxPoint x="710" y="350" />
              <mxPoint x="710" y="420" />
            </Array>
          </mxGeometry>
        </mxCell>
        <mxCell id="mPL2Kx1eOWZCQkywm1ft-91" style="edgeStyle=orthogonalEdgeStyle;rounded=0;orthogonalLoop=1;jettySize=auto;html=1;entryX=1;entryY=0.5;entryDx=0;entryDy=0;" edge="1" parent="1" source="mPL2Kx1eOWZCQkywm1ft-73" target="mPL2Kx1eOWZCQkywm1ft-89">
          <mxGeometry relative="1" as="geometry">
            <Array as="points">
              <mxPoint x="710" y="350" />
              <mxPoint x="710" y="200" />
            </Array>
          </mxGeometry>
        </mxCell>
        <mxCell id="mPL2Kx1eOWZCQkywm1ft-73" value="Poskytovatel" style="shape=umlActor;verticalLabelPosition=bottom;verticalAlign=top;html=1;outlineConnect=0;" vertex="1" parent="1">
          <mxGeometry x="750" y="320" width="30" height="60" as="geometry" />
        </mxCell>
        <mxCell id="mPL2Kx1eOWZCQkywm1ft-74" value="Správa nabídky" style="rounded=1;whiteSpace=wrap;html=1;fillColor=#e1d5e7;strokeColor=#9673a6;" vertex="1" parent="1">
          <mxGeometry x="550" y="250" width="110" height="40" as="geometry" />
        </mxCell>
        <mxCell id="mPL2Kx1eOWZCQkywm1ft-75" value="Správa rezervací" style="rounded=1;whiteSpace=wrap;html=1;fillColor=#e1d5e7;strokeColor=#9673a6;" vertex="1" parent="1">
          <mxGeometry x="550" y="330" width="110" height="40" as="geometry" />
        </mxCell>
        <mxCell id="mPL2Kx1eOWZCQkywm1ft-76" value="Správa uživatelských účtů" style="rounded=1;whiteSpace=wrap;html=1;fillColor=#e1d5e7;strokeColor=#9673a6;" vertex="1" parent="1">
          <mxGeometry x="550" y="400" width="110" height="40" as="geometry" />
        </mxCell>
        <mxCell id="mPL2Kx1eOWZCQkywm1ft-87" style="edgeStyle=orthogonalEdgeStyle;rounded=0;orthogonalLoop=1;jettySize=auto;html=1;entryX=1;entryY=0.5;entryDx=0;entryDy=0;" edge="1" parent="1" source="mPL2Kx1eOWZCQkywm1ft-84" target="mPL2Kx1eOWZCQkywm1ft-85">
          <mxGeometry relative="1" as="geometry" />
        </mxCell>
        <mxCell id="mPL2Kx1eOWZCQkywm1ft-84" value="Platební brána" style="shape=umlActor;verticalLabelPosition=bottom;verticalAlign=top;html=1;outlineConnect=0;" vertex="1" parent="1">
          <mxGeometry x="750" y="520" width="30" height="60" as="geometry" />
        </mxCell>
        <mxCell id="mPL2Kx1eOWZCQkywm1ft-86" style="edgeStyle=orthogonalEdgeStyle;rounded=0;orthogonalLoop=1;jettySize=auto;html=1;entryX=0.5;entryY=0;entryDx=0;entryDy=0;dashed=1;" edge="1" parent="1" source="mPL2Kx1eOWZCQkywm1ft-85" target="mPL2Kx1eOWZCQkywm1ft-31">
          <mxGeometry relative="1" as="geometry">
            <Array as="points">
              <mxPoint x="500" y="550" />
              <mxPoint x="500" y="230" />
              <mxPoint x="205" y="230" />
            </Array>
          </mxGeometry>
        </mxCell>
        <mxCell id="mPL2Kx1eOWZCQkywm1ft-88" value="&amp;lt;&amp;lt;include&amp;gt;&amp;gt;" style="edgeLabel;html=1;align=center;verticalAlign=middle;resizable=0;points=[];" connectable="0" vertex="1" parent="mPL2Kx1eOWZCQkywm1ft-86">
          <mxGeometry x="-0.5434" y="2" relative="1" as="geometry">
            <mxPoint y="17" as="offset" />
          </mxGeometry>
        </mxCell>
        <mxCell id="mPL2Kx1eOWZCQkywm1ft-85" value="Platby" style="rounded=1;whiteSpace=wrap;html=1;fillColor=#d5e8d4;strokeColor=#82b366;" vertex="1" parent="1">
          <mxGeometry x="550" y="530" width="110" height="40" as="geometry" />
        </mxCell>
        <mxCell id="mPL2Kx1eOWZCQkywm1ft-89" value="Hodnocení pobytů" style="rounded=1;whiteSpace=wrap;html=1;fillColor=#e1d5e7;strokeColor=#9673a6;" vertex="1" parent="1">
          <mxGeometry x="550" y="180" width="110" height="40" as="geometry" />
        </mxCell>
        <mxCell id="mPL2Kx1eOWZCQkywm1ft-95" style="edgeStyle=orthogonalEdgeStyle;rounded=0;orthogonalLoop=1;jettySize=auto;html=1;entryX=0.5;entryY=0;entryDx=0;entryDy=0;dashed=1;" edge="1" parent="1" source="mPL2Kx1eOWZCQkywm1ft-92" target="mPL2Kx1eOWZCQkywm1ft-89">
          <mxGeometry relative="1" as="geometry" />
        </mxCell>
        <mxCell id="mPL2Kx1eOWZCQkywm1ft-96" value="&amp;lt;&amp;lt;extend&amp;gt;&amp;gt;" style="edgeLabel;html=1;align=center;verticalAlign=middle;resizable=0;points=[];" connectable="0" vertex="1" parent="mPL2Kx1eOWZCQkywm1ft-95">
          <mxGeometry x="0.2492" y="-3" relative="1" as="geometry">
            <mxPoint x="3" y="31" as="offset" />
          </mxGeometry>
        </mxCell>
        <mxCell id="mPL2Kx1eOWZCQkywm1ft-92" value="Reakce na hodnocení" style="rounded=1;whiteSpace=wrap;html=1;fillColor=#ffe6cc;strokeColor=#d79b00;" vertex="1" parent="1">
          <mxGeometry x="370" y="70" width="110" height="40" as="geometry" />
        </mxCell>
      </root>
    </mxGraphModel>
  </diagram>
</mxfile>
